<svg xmlns="http://www.w3.org/2000/svg" viewBox="0 0 45.01 41.69"><defs><style>.cls-1{fill:#2e3192;}.cls-2,.cls-3,.cls-4{fill:none;stroke:#2e3192;stroke-miterlimit:10;}.cls-3,.cls-4{stroke-linecap:round;}.cls-4{stroke-width:2px;}</style></defs><g id="レイヤー_2" data-name="レイヤー 2"><g id="レイヤー_3" data-name="レイヤー 3"><path class="cls-1" d="M44.1,7C47.58,42.39,28.51,43,10,40.16L10,40c3.75-1.16,6.45-3.85,6.57-8,5.17-.25,9-3.86,9.06-9.09,5.34-.1,9.68-3.61,9.83-8.91,2.72-.08,7.46-1,8.54-7Z"/><path class="cls-2" d="M44,7c-1.08,6-5.82,6.91-8.54,7H35"/><path class="cls-2" d="M35.47,13.71a2.71,2.71,0,0,1,0,.29c-.15,5.3-4.49,8.81-9.83,8.91H25.4"/><path class="cls-2" d="M25.63,22.68v.23c-.11,5.23-3.89,8.84-9.06,9.09H16"/><path class="cls-2" d="M16.58,31.71a2.71,2.71,0,0,1,0,.29c-.12,4.16-2.82,6.85-6.57,8"/><path class="cls-3" d="M44,6c0,.33.07.66.1,1C47.58,42.39,28.51,43,10,40.16L9,40"/><path class="cls-3" d="M3.46,10.74C7.39,19.73,6.85,23,3.1,23"/><line class="cls-2" x1="6.68" y1="3.69" x2="26.35" y2="23.36"/><path class="cls-4" d="M3.05,1.36c-.9.78-.64,2.2.4,3.41"/><path class="cls-4" d="M3.05,1.36C4.17.45,5,1.4,6,2.61"/><path class="cls-4" d="M6,2.61,8.36,5.34"/><path class="cls-3" d="M3.43,10.93C-.67,19.31-.17,23.17,3.1,23"/></g></g></svg>